<?xml version="1.0" encoding="utf-8"?>
<!-- Generator: Adobe Illustrator 24.0.0, SVG Export Plug-In . SVG Version: 6.00 Build 0)  -->
<svg version="1.1" id="Layer_1" xmlns="http://www.w3.org/2000/svg" xmlns:xlink="http://www.w3.org/1999/xlink" x="0px" y="0px"
	 viewBox="0 0 50 41" style="enable-background:new 0 0 50 41;" xml:space="preserve">
<style type="text/css">
	.st0{fill:none;}
	.st1{fill:url(#SVGID_1_);}
	.st2{fill:url(#SVGID_2_);}
	.st3{fill:url(#SVGID_3_);}
	.st4{fill:url(#SVGID_4_);}
	.st5{fill:#FFFFFF;}
</style>
<g>
	<g>
		<path class="st0" d="M0.5,0.38h11.9l12.35,29.69L37.6,0.38h11.9L34.23,35.57c0,0-1.96,5.05-9.23,5.05c-7.27,0-9.01-3.31-10.3-5.89
			L0.5,0.38z"/>
		<linearGradient id="SVGID_1_" gradientUnits="userSpaceOnUse" x1="7.5859" y1="31.0904" x2="37.5275" y2="-8.6435">
			<stop  offset="0" style="stop-color:#501111"/>
			<stop  offset="0.2667" style="stop-color:#E62027"/>
			<stop  offset="1" style="stop-color:#EA2227"/>
		</linearGradient>
		<path class="st1" d="M0.5,0.38h11.9l12.35,29.69L37.6,0.38h11.9L34.23,35.57c0,0-1.96,5.05-9.23,5.05c-7.27,0-9.01-3.31-10.3-5.89
			L0.5,0.38z"/>
		<linearGradient id="SVGID_2_" gradientUnits="userSpaceOnUse" x1="7.325" y1="27.4153" x2="23.5704" y2="12.7879">
			<stop  offset="0" style="stop-color:#88181A"/>
			<stop  offset="0.4606" style="stop-color:#EA2227"/>
		</linearGradient>
		<path class="st2" d="M24.74,30.07L12.4,0.38H0.5l14.2,34.35c1.29,2.58,3.03,5.89,10.3,5.89c3.32,0,5.53-1.06,6.96-2.21
			C26.57,35.21,24.74,30.07,24.74,30.07z"/>
		<linearGradient id="SVGID_3_" gradientUnits="userSpaceOnUse" x1="33.0601" y1="8.779" x2="49.5" y2="8.779">
			<stop  offset="0" style="stop-color:#636467"/>
			<stop  offset="1" style="stop-color:#C5C6C7"/>
		</linearGradient>
		<path class="st3" d="M37.6,0.38l-4.54,10.48c1.41,2.28,4.28,5.65,9.15,6.32l7.29-16.8H37.6z"/>
	</g>
	<g>
		<g>
			<linearGradient id="SVGID_4_" gradientUnits="userSpaceOnUse" x1="9.4693" y1="18.1961" x2="38.8176" y2="18.1961">
				<stop  offset="0" style="stop-color:#636467"/>
				<stop  offset="1" style="stop-color:#C5C6C7"/>
			</linearGradient>
			<path class="st4" d="M27.99,11.64c0.03,0,0.07,0.02,0.13,0.04c0.08,0.03,0.13,0.1,0.13,0.21c0,0.11-0.03,0.21-0.08,0.29
				c-0.73,1.16-1.42,2.3-2.07,3.43c-0.56,0.96-1.13,1.97-1.69,3.02c-0.57,1.06-1.01,1.98-1.31,2.77v0.17c0,0.08,0.03,0.13,0.08,0.13
				c0.06,0,0.11-0.03,0.17-0.08c1.18-1.3,2.42-2.56,3.72-3.81c1.1-1.07,2.32-2.19,3.66-3.36c1.34-1.17,2.66-2.19,3.95-3.07
				c0.14-0.11,0.53-0.3,1.16-0.55c0.63-0.25,1.3-0.38,2.01-0.38c0.17,0,0.37,0.02,0.61,0.04c0.24,0.03,0.36,0.14,0.36,0.34
				c0,0.06-0.02,0.15-0.06,0.28c-0.04,0.13-0.13,0.27-0.27,0.44c-0.4,0.59-0.83,1.24-1.31,1.95c-0.4,0.59-0.85,1.28-1.35,2.05
				c-0.51,0.78-1.05,1.62-1.61,2.52c0.03-0.06-0.12,0.15-0.44,0.61c-0.33,0.47-0.68,1.03-1.08,1.69c-0.4,0.66-0.76,1.35-1.1,2.07
				c-0.34,0.72-0.51,1.29-0.51,1.71c0,0.14,0.04,0.27,0.1,0.4c0.07,0.13,0.22,0.19,0.44,0.19c0.09,0,0.2-0.02,0.34-0.06
				c0.14-0.04,0.32-0.14,0.55-0.3c0.22-0.16,0.5-0.38,0.83-0.68c0.33-0.29,0.7-0.71,1.12-1.25c0.42-0.48,0.86-0.99,1.31-1.52
				c0.4-0.48,0.8-1.01,1.23-1.59c0.42-0.58,0.8-1.16,1.14-1.76l0.04-0.04c0.03-0.03,0.05-0.04,0.09-0.04c0.05,0,0.1,0.05,0.12,0.15
				c0.03,0.1,0.05,0.22,0.05,0.36c0,0.14-0.09,0.4-0.25,0.76c-0.17,0.37-0.38,0.78-0.64,1.23c-0.23,0.4-0.45,0.77-0.68,1.12
				c-0.22,0.35-0.44,0.67-0.63,0.95c-0.23,0.31-0.45,0.59-0.68,0.85c-0.82,1.04-1.57,1.88-2.24,2.52c-0.68,0.63-1.28,1.12-1.8,1.46
				c-0.52,0.34-0.98,0.56-1.37,0.66c-0.4,0.1-0.72,0.15-0.97,0.15c-0.36,0-0.65-0.06-0.86-0.19c-0.21-0.13-0.37-0.28-0.47-0.46
				c-0.1-0.18-0.15-0.36-0.17-0.53c-0.01-0.17-0.02-0.3-0.02-0.38c0-0.56,0.16-1.26,0.47-2.09c0.31-0.83,0.66-1.63,1.06-2.39
				c0.45-0.9,0.96-1.83,1.52-2.79c0.4-0.65,0.78-1.26,1.14-1.84c0.37-0.58,0.7-1.11,1.01-1.59c0.34-0.54,0.67-1.04,1.02-1.52
				c0.03-0.03,0.04-0.07,0.04-0.13c0-0.09-0.03-0.13-0.08-0.13h-0.09c-0.28,0.08-0.64,0.29-1.08,0.61
				c-0.44,0.33-0.93,0.73-1.48,1.23c-0.55,0.49-1.13,1.03-1.75,1.63c-0.62,0.59-1.23,1.18-1.82,1.78c-1.41,1.41-2.92,2.97-4.52,4.7
				c-0.28,0.34-0.59,0.6-0.91,0.78c-0.33,0.18-0.63,0.32-0.91,0.4c-0.28,0.08-0.53,0.14-0.74,0.17c-0.21,0.03-0.36,0.04-0.44,0.04
				h-0.17c-0.31,0-0.51-0.07-0.59-0.21c-0.08-0.14-0.13-0.27-0.13-0.38c0-0.06,0.01-0.08,0.02-0.08c0.01,0,0.02-0.02,0.02-0.04
				v-0.04c0.02-0.2,0.09-0.45,0.19-0.76c0.1-0.31,0.22-0.65,0.38-1.02c0.15-0.36,0.31-0.73,0.46-1.08c0.15-0.35,0.3-0.67,0.44-0.95
				c0.34-0.73,0.68-1.43,1.04-2.09c0.35-0.66,0.68-1.23,0.99-1.71c0.34-0.56,0.68-1.1,1.02-1.61c0.03-0.03,0.04-0.07,0.04-0.13
				s-0.04-0.08-0.13-0.08h-0.13c-0.03,0-0.04,0.01-0.04,0.04c-0.51,0.37-1.04,0.8-1.61,1.29c-0.57,0.49-1.14,1.02-1.74,1.58
				c-0.59,0.57-1.18,1.14-1.78,1.71c-0.59,0.58-1.16,1.15-1.69,1.71c-1.27,1.3-2.54,2.65-3.81,4.06c-0.37,0.45-0.8,0.77-1.31,0.95
				c-0.51,0.18-1.04,0.28-1.61,0.28c-0.22,0-0.37-0.06-0.42-0.19c-0.06-0.13-0.08-0.27-0.08-0.44c0.08-0.73,0.37-1.63,0.85-2.71
				c0.48-1.07,1.05-2.19,1.71-3.36c0.66-1.17,1.36-2.35,2.1-3.53c0.73-1.18,1.42-2.25,2.07-3.19c0.65-0.95,1.19-1.72,1.63-2.33
				c0.44-0.61,0.67-0.94,0.7-1c0.28-0.34,0.71-0.59,1.29-0.76c0.58-0.17,1.17-0.25,1.8-0.25c0.31,0,0.46,0.06,0.46,0.17
				c0,0.06-0.04,0.16-0.12,0.3c-1.18,1.64-2.33,3.26-3.43,4.86c-0.93,1.38-1.87,2.83-2.81,4.36c-0.95,1.52-1.68,2.89-2.22,4.1v0.09
				c0,0.03-0.01,0.05-0.02,0.06c-0.01,0.02-0.02,0.04-0.02,0.06c0,0.11,0.06,0.17,0.17,0.17c0.06,0,0.16-0.07,0.3-0.21
				c1.58-1.69,3.07-3.24,4.48-4.65c0.59-0.59,1.2-1.19,1.82-1.8c0.62-0.61,1.21-1.17,1.78-1.69c0.57-0.52,1.09-0.98,1.57-1.37
				c0.48-0.39,0.86-0.68,1.14-0.85c0.17-0.11,0.41-0.22,0.72-0.34c0.25-0.08,0.56-0.16,0.93-0.21c0.37-0.06,0.79-0.08,1.27-0.08
				H27.99z"/>
		</g>
		<g>
			<path class="st5" d="M36.24,22.09c0.19-0.28,0.41-0.6,0.63-0.95c0.23-0.35,0.45-0.72,0.68-1.12c0.26-0.45,0.47-0.86,0.64-1.23
				c0.17-0.36,0.25-0.62,0.25-0.76c0-0.14-0.01-0.26-0.05-0.36c-0.03-0.1-0.07-0.15-0.12-0.15c-0.03,0-0.06,0.01-0.09,0.04
				l-0.04,0.04c-0.34,0.59-0.72,1.18-1.14,1.76c-0.42,0.58-0.83,1.11-1.23,1.59c-0.45,0.53-0.89,1.04-1.31,1.52
				c-0.42,0.54-0.8,0.95-1.12,1.25c-0.33,0.3-0.6,0.52-0.83,0.68c-0.23,0.15-0.41,0.25-0.55,0.3c-0.14,0.04-0.25,0.06-0.34,0.06
				c-0.23,0-0.37-0.06-0.44-0.19c-0.07-0.13-0.1-0.26-0.1-0.4c0-0.42,0.17-1,0.51-1.71c0.34-0.72,0.7-1.41,1.1-2.07
				c0.39-0.66,0.75-1.23,1.08-1.69c0.32-0.46,0.47-0.67,0.44-0.61c0.56-0.9,1.1-1.74,1.61-2.52c0.51-0.77,0.96-1.46,1.35-2.05
				c0.48-0.71,0.91-1.35,1.31-1.95c0.14-0.17,0.23-0.32,0.27-0.44c0.04-0.13,0.06-0.22,0.06-0.28c0-0.2-0.12-0.31-0.36-0.34
				c-0.24-0.03-0.44-0.04-0.61-0.04c-0.71,0-1.38,0.13-2.01,0.38c-0.64,0.25-1.02,0.44-1.16,0.55c-0.89,0.6-1.8,1.28-2.72,2.03
				l-1,2.3c0.07-0.07,0.16-0.14,0.23-0.21c0.55-0.49,1.05-0.9,1.48-1.23c0.44-0.32,0.79-0.53,1.08-0.61h0.09
				c0.05,0,0.08,0.04,0.08,0.13c0,0.06-0.01,0.1-0.04,0.13c-0.34,0.48-0.68,0.99-1.02,1.52c-0.31,0.48-0.65,1.01-1.01,1.59
				c-0.37,0.58-0.75,1.19-1.14,1.84c-0.56,0.96-1.07,1.89-1.52,2.79c-0.39,0.76-0.75,1.56-1.06,2.39c-0.31,0.83-0.47,1.53-0.47,2.09
				c0,0.08,0.01,0.21,0.02,0.38c0.02,0.17,0.07,0.35,0.17,0.53c0.1,0.18,0.25,0.34,0.47,0.46c0.21,0.13,0.5,0.19,0.86,0.19
				c0.25,0,0.58-0.05,0.97-0.15c0.39-0.1,0.85-0.32,1.37-0.66c0.52-0.34,1.12-0.83,1.8-1.46c0.67-0.64,1.42-1.47,2.24-2.52
				C35.79,22.68,36.01,22.4,36.24,22.09z"/>
			<path class="st5" d="M19.24,24.24v0.04c0,0.03-0.01,0.04-0.02,0.04c-0.02,0-0.02,0.03-0.02,0.08c0,0.11,0.04,0.24,0.13,0.38
				c0.08,0.14,0.28,0.21,0.59,0.21h0.17c0.08,0,0.23-0.01,0.44-0.04c0.21-0.03,0.46-0.09,0.74-0.17c0.28-0.08,0.59-0.22,0.91-0.4
				c0.06-0.03,0.11-0.07,0.16-0.1l-1.61-3.88c0,0.01-0.01,0.02-0.01,0.02c-0.14,0.28-0.29,0.6-0.44,0.95
				c-0.16,0.35-0.31,0.71-0.46,1.08c-0.16,0.37-0.28,0.71-0.38,1.02C19.33,23.79,19.27,24.05,19.24,24.24z"/>
			<path class="st5" d="M18.39,19.45c0.46-0.45,0.92-0.89,1.38-1.33l-0.44-1.06c-0.32,0.31-0.63,0.62-0.94,0.93
				c-1.41,1.41-2.9,2.96-4.48,4.65c-0.14,0.14-0.24,0.21-0.3,0.21c-0.11,0-0.17-0.06-0.17-0.17c0-0.03,0.01-0.05,0.02-0.06
				c0.01-0.01,0.02-0.03,0.02-0.06v-0.09c0.54-1.21,1.28-2.58,2.22-4.1c0.85-1.37,1.69-2.68,2.53-3.94l-1.13-2.73
				c-0.28,0.4-0.58,0.83-0.91,1.32c-0.65,0.95-1.34,2.01-2.07,3.19c-0.73,1.18-1.43,2.36-2.1,3.53c-0.66,1.17-1.23,2.29-1.71,3.36
				c-0.08,0.18-0.15,0.34-0.21,0.51l1.11,2.68c0.13-0.04,0.25-0.07,0.37-0.12c0.51-0.18,0.95-0.5,1.31-0.95
				c1.27-1.41,2.54-2.76,3.81-4.06C17.23,20.59,17.8,20.02,18.39,19.45z"/>
		</g>
	</g>
</g>
</svg>
