<?xml version="1.0" encoding="utf-8"?>
<!-- Generator: Adobe Illustrator 24.0.0, SVG Export Plug-In . SVG Version: 6.00 Build 0)  -->
<svg version="1.1" id="Layer_1" xmlns="http://www.w3.org/2000/svg" xmlns:xlink="http://www.w3.org/1999/xlink" x="0px" y="0px"
	 viewBox="0 0 85 20.5" style="enable-background:new 0 0 85 20.5;" xml:space="preserve">
<style type="text/css">
	.st0{fill:url(#SVGID_1_);}
	.st1{fill:url(#SVGID_2_);}
	.st2{fill:url(#SVGID_3_);}
	.st3{fill:#6D6F71;}
	.st4{fill:#FF0000;}
</style>
<g>
	<g>
		<g>
			<linearGradient id="SVGID_1_" gradientUnits="userSpaceOnUse" x1="0.5" y1="8.2139" x2="84.5" y2="8.2139">
				<stop  offset="0" style="stop-color:#501111"/>
				<stop  offset="0.7394" style="stop-color:#E62027"/>
				<stop  offset="1" style="stop-color:#EA2227"/>
			</linearGradient>
			<path class="st0" d="M71.14,0.75c-0.41,0-0.76,0.15-1.05,0.44c-0.29,0.29-0.43,0.64-0.43,1.06s0.14,0.76,0.43,1.06
				c0.29,0.29,0.64,0.44,1.05,0.44c0.17,0,0.35-0.04,0.53-0.12c0.18-0.08,0.34-0.19,0.49-0.33c0.14-0.14,0.26-0.3,0.35-0.48
				c0.09-0.18,0.13-0.37,0.13-0.57c0-0.41-0.14-0.76-0.44-1.06C71.91,0.89,71.56,0.75,71.14,0.75z M12.48,0.75
				c-0.41,0-0.76,0.15-1.05,0.44c-0.29,0.29-0.43,0.64-0.43,1.06s0.14,0.76,0.43,1.06c0.29,0.29,0.63,0.44,1.05,0.44
				c0.17,0,0.35-0.04,0.53-0.12c0.18-0.08,0.34-0.19,0.49-0.33c0.14-0.14,0.26-0.3,0.35-0.48c0.09-0.18,0.13-0.37,0.13-0.57
				c0-0.41-0.14-0.76-0.44-1.06C13.24,0.89,12.89,0.75,12.48,0.75z M43.65,7.13c-0.39-0.45-0.9-0.8-1.53-1.05
				c-0.62-0.24-1.38-0.37-2.27-0.37c-0.84,0-1.57,0.13-2.2,0.39c-0.63,0.26-1.16,0.64-1.58,1.12c-0.39-0.46-0.89-0.82-1.52-1.07
				c-0.63-0.24-1.39-0.37-2.29-0.37c-1.61,0-2.84,0.47-3.7,1.4c-0.86,0.94-1.29,2.22-1.29,3.84v4.62h2.29v-5.24
				c0-0.66,0.07-1.22,0.2-1.67c0.13-0.45,0.32-0.81,0.57-1.08c0.25-0.26,0.54-0.45,0.89-0.56c0.35-0.11,0.72-0.15,1.14-0.14
				c0.41-0.01,0.78,0.04,1.09,0.15c0.31,0.11,0.58,0.3,0.79,0.57c0.21,0.27,0.37,0.62,0.49,1.06c0.11,0.44,0.17,0.98,0.17,1.63v5.28
				h2.29v-4.4c0-0.35,0-0.57-0.01-0.68c0-0.11-0.01-0.19-0.01-0.24c0-0.66,0.07-1.22,0.2-1.67c0.13-0.45,0.32-0.81,0.57-1.08
				c0.25-0.26,0.54-0.45,0.89-0.56c0.35-0.11,0.72-0.15,1.14-0.14c0.41-0.01,0.78,0.04,1.1,0.15c0.32,0.11,0.58,0.3,0.8,0.57
				c0.21,0.27,0.37,0.62,0.48,1.07c0.11,0.44,0.16,1,0.16,1.66v5.32h2.29v-4.7c0-0.81-0.09-1.54-0.27-2.18
				C44.32,8.13,44.04,7.58,43.65,7.13z M11.38,15.66h2.29V5.65h-2.29V15.66z M5.56,12.45L2.93,5.67H0.5l4.27,10.05h0.76L9.91,5.69
				H8.43L5.56,12.45z M24.45,7.21c-0.39-0.45-0.9-0.8-1.53-1.05c-0.62-0.24-1.38-0.37-2.27-0.37c-1.61,0-2.84,0.47-3.7,1.4
				c-0.86,0.94-1.29,2.22-1.29,3.84v4.62h2.29v-5.24c0-0.66,0.07-1.22,0.2-1.67c0.13-0.45,0.32-0.81,0.57-1.08
				c0.24-0.26,0.54-0.45,0.89-0.56c0.35-0.11,0.72-0.15,1.14-0.14c0.41-0.01,0.78,0.04,1.1,0.15c0.32,0.11,0.58,0.3,0.8,0.57
				c0.21,0.27,0.37,0.62,0.48,1.07c0.11,0.45,0.16,1,0.16,1.66v5.24h2.29v-4.62c0-0.81-0.09-1.54-0.27-2.18
				C25.13,8.21,24.84,7.66,24.45,7.21z M65.62,6.29c-0.39-0.19-0.81-0.35-1.27-0.49c-0.46-0.14-0.99-0.21-1.59-0.21
				c-0.88,0-1.62,0.12-2.23,0.37C59.93,6.21,59.42,6.55,59.02,7c-0.4,0.44-0.7,0.98-0.9,1.6c-0.2,0.63-0.31,1.32-0.34,2.09
				c0.03,0.77,0.14,1.46,0.34,2.07c0.2,0.61,0.5,1.13,0.9,1.57c0.4,0.43,0.9,0.76,1.52,1c0.61,0.23,1.36,0.35,2.23,0.35
				c0.92,0,1.7-0.12,2.34-0.35c0.65-0.23,1.17-0.57,1.59-1c0.41-0.43,0.72-0.95,0.92-1.57c0.2-0.61,0.31-1.3,0.34-2.07V0.71h-2.29
				L65.62,6.29z M65.66,11.05c0,0.66-0.07,1.22-0.2,1.67c-0.13,0.44-0.32,0.8-0.57,1.07c-0.25,0.27-0.54,0.46-0.89,0.57
				c-0.34,0.11-0.72,0.16-1.14,0.15c-0.41,0.01-0.79-0.03-1.14-0.14c-0.34-0.1-0.64-0.29-0.89-0.56c-0.25-0.27-0.44-0.62-0.57-1.08
				c-0.13-0.45-0.2-1.01-0.2-1.67v-0.7c0-0.67,0.07-1.23,0.2-1.7c0.13-0.46,0.32-0.84,0.57-1.13c0.24-0.29,0.54-0.49,0.89-0.61
				c0.35-0.12,0.72-0.17,1.14-0.16c0.41-0.01,0.79,0.04,1.14,0.17c0.34,0.13,0.64,0.33,0.89,0.62c0.25,0.29,0.44,0.66,0.57,1.12
				c0.13,0.46,0.2,1.02,0.2,1.69V11.05z M70.05,15.66h2.29V5.65h-2.29V15.66z M54.8,7.32c-0.43-0.44-0.94-0.8-1.53-1.06
				C52.67,6,52,5.86,51.27,5.85c-0.69,0.03-1.33,0.17-1.91,0.44c-0.58,0.27-1.09,0.62-1.52,1.07C47.4,7.8,47.06,8.32,46.83,8.9
				c-0.24,0.58-0.36,1.21-0.36,1.87c0.03,0.72,0.17,1.38,0.43,1.97c0.26,0.6,0.61,1.11,1.05,1.55c0.44,0.43,0.95,0.77,1.54,1.01
				c0.59,0.24,1.24,0.36,1.94,0.36c0.47,0.03,0.91-0.04,1.34-0.2c0.43-0.16,0.84-0.33,1.26-0.52l-0.16-0.66
				c-0.84,0.23-1.5,0.34-1.99,0.34c-0.6,0-1.1-0.11-1.49-0.32c-0.4-0.21-0.72-0.48-0.97-0.8c-0.25-0.32-0.42-0.67-0.54-1.06
				c-0.11-0.38-0.19-0.76-0.23-1.12h7.42c0-0.08,0-0.18,0.01-0.31c0.01-0.13,0.01-0.22,0.01-0.29c0.03-0.65-0.07-1.27-0.3-1.86
				C55.55,8.28,55.22,7.76,54.8,7.32z M48.66,10.1c0.04-0.4,0.12-0.78,0.24-1.16c0.12-0.37,0.28-0.7,0.49-0.99
				c0.21-0.29,0.46-0.52,0.76-0.7c0.3-0.18,0.65-0.27,1.05-0.27h0.04c0.73,0,1.33,0.25,1.8,0.74c0.46,0.49,0.75,1.28,0.86,2.37
				H48.66z M84.16,8.64c-0.2-0.61-0.51-1.13-0.92-1.56c-0.41-0.43-0.94-0.77-1.59-1c-0.64-0.23-1.42-0.35-2.34-0.35
				c-0.88,0-1.62,0.12-2.23,0.35c-0.61,0.23-1.12,0.57-1.52,1c-0.4,0.43-0.7,0.95-0.9,1.56c-0.2,0.61-0.31,1.3-0.34,2.07
				c0.03,0.77,0.14,1.46,0.34,2.07c0.2,0.61,0.5,1.13,0.9,1.56c0.4,0.43,0.9,0.76,1.52,0.99c0.61,0.23,1.36,0.34,2.23,0.34
				c0.29,0,0.57-0.03,0.83-0.09c0.26-0.06,0.5-0.17,0.73-0.32c0.22-0.15,0.45-0.36,0.67-0.63c0.22-0.27,0.44-0.6,0.67-1.02
				l-0.02,1.99v0.06h2.31v-4.96C84.47,9.94,84.36,9.25,84.16,8.64z M82.21,10.4c0,1.33-0.26,2.35-0.77,3.07
				c-0.51,0.72-1.19,1.06-2.02,1.04c-0.41,0.01-0.79-0.03-1.14-0.14c-0.34-0.1-0.64-0.29-0.89-0.56c-0.25-0.27-0.44-0.62-0.57-1.08
				c-0.14-0.45-0.2-1.01-0.2-1.67v-0.7c0-0.67,0.07-1.22,0.2-1.68c0.13-0.45,0.32-0.81,0.57-1.08c0.25-0.26,0.54-0.45,0.89-0.56
				c0.35-0.11,0.73-0.15,1.14-0.14c0.41-0.01,0.79,0.04,1.14,0.15c0.35,0.11,0.64,0.3,0.89,0.57c0.25,0.27,0.44,0.62,0.57,1.07
				c0.13,0.45,0.2,1,0.2,1.67V10.4z"/>
		</g>
	</g>
	<g>
		<g>
			<linearGradient id="SVGID_2_" gradientUnits="userSpaceOnUse" x1="0.5" y1="8.2333" x2="44.5234" y2="8.2333">
				<stop  offset="0" style="stop-color:#88181A"/>
				<stop  offset="0.4606" style="stop-color:#EA2227"/>
			</linearGradient>
			<path class="st1" d="M12.48,0.75c-0.41,0-0.76,0.15-1.05,0.44c-0.29,0.29-0.43,0.64-0.43,1.06s0.14,0.76,0.43,1.06
				c0.29,0.29,0.63,0.44,1.05,0.44c0.17,0,0.35-0.04,0.53-0.12c0.18-0.08,0.34-0.19,0.49-0.33c0.14-0.14,0.26-0.3,0.35-0.48
				c0.09-0.18,0.13-0.37,0.13-0.57c0-0.41-0.14-0.76-0.44-1.06C13.24,0.89,12.89,0.75,12.48,0.75z M5.56,12.45L2.93,5.67H0.5
				l4.27,10.05h0.76L9.91,5.69H8.43L5.56,12.45z M11.38,15.66h2.29V5.65h-2.29V15.66z M42.48,14.07v1.59h2.04
				C43.83,15.13,43.14,14.6,42.48,14.07z M34.04,6c-0.52-0.14-1.11-0.2-1.79-0.2c-1.61,0-2.84,0.47-3.7,1.4
				c-0.86,0.94-1.29,2.22-1.29,3.84v4.62h2.29v-5.24c0-0.66,0.07-1.22,0.2-1.67c0.13-0.45,0.32-0.81,0.57-1.08
				c0.25-0.26,0.54-0.45,0.89-0.56c0.35-0.11,0.72-0.15,1.14-0.14c0.41-0.01,0.78,0.04,1.09,0.15c0.31,0.11,0.58,0.3,0.79,0.57
				c0.21,0.27,0.37,0.62,0.49,1.06c0.11,0.44,0.17,0.98,0.17,1.63v5.28h2.29v-4.4c0-0.35,0-0.57-0.01-0.68
				c0-0.11-0.01-0.19-0.01-0.24c0-0.36,0.02-0.68,0.06-0.98C36.09,8.24,35.03,7.12,34.04,6z M24.45,7.21
				c-0.39-0.45-0.9-0.8-1.53-1.05c-0.62-0.24-1.38-0.37-2.27-0.37c-1.61,0-2.84,0.47-3.7,1.4c-0.86,0.94-1.29,2.22-1.29,3.84v4.62
				h2.29v-5.24c0-0.66,0.07-1.22,0.2-1.67c0.13-0.45,0.32-0.81,0.57-1.08c0.24-0.26,0.54-0.45,0.89-0.56
				c0.35-0.11,0.72-0.15,1.14-0.14c0.41-0.01,0.78,0.04,1.1,0.15c0.32,0.11,0.58,0.3,0.8,0.57c0.21,0.27,0.37,0.62,0.48,1.07
				c0.11,0.45,0.16,1,0.16,1.66v5.24h2.29v-4.62c0-0.81-0.09-1.54-0.27-2.18C25.13,8.21,24.84,7.66,24.45,7.21z"/>
		</g>
	</g>
	<linearGradient id="SVGID_3_" gradientUnits="userSpaceOnUse" x1="61.7209" y1="8.1925" x2="84.5" y2="8.1925">
		<stop  offset="0.4121" style="stop-color:#636467"/>
		<stop  offset="1" style="stop-color:#C5C6C7"/>
	</linearGradient>
	<path class="st2" d="M65.62,6.29c-0.39-0.19-0.81-0.35-1.27-0.49c-0.46-0.14-0.99-0.21-1.59-0.21c-0.38,0-0.72,0.03-1.05,0.07
		c0.32,0.37,0.64,0.74,0.98,1.11c0.06,0,0.11-0.01,0.17-0.01c0.41-0.01,0.79,0.04,1.14,0.17c0.34,0.13,0.64,0.33,0.89,0.62
		c0.25,0.29,0.44,0.66,0.57,1.12c0.1,0.33,0.16,0.72,0.19,1.17c0.7,0.68,1.43,1.36,2.18,2.03c0.06-0.37,0.11-0.76,0.12-1.17V0.71
		h-2.29L65.62,6.29z M70.05,13.75c0.74,0.6,1.5,1.19,2.29,1.77V5.65h-2.29V13.75z M84.16,8.64c-0.2-0.61-0.51-1.13-0.92-1.56
		c-0.41-0.43-0.94-0.77-1.59-1c-0.64-0.23-1.43-0.35-2.34-0.35c-0.88,0-1.62,0.12-2.23,0.35c-0.61,0.23-1.12,0.57-1.52,1
		c-0.4,0.43-0.7,0.95-0.9,1.56c-0.2,0.61-0.31,1.3-0.34,2.07c0.03,0.77,0.14,1.46,0.34,2.07c0.2,0.61,0.5,1.13,0.9,1.56
		c0.4,0.43,0.9,0.76,1.52,0.99c0.61,0.23,1.36,0.34,2.23,0.34c0.29,0,0.57-0.03,0.83-0.09c0.26-0.06,0.5-0.17,0.73-0.32
		c0.22-0.15,0.45-0.36,0.67-0.63c0.22-0.27,0.44-0.6,0.67-1.02l-0.02,1.99v0.06h2.31v-4.96C84.47,9.94,84.36,9.25,84.16,8.64z
		 M82.21,10.4c0,1.33-0.26,2.35-0.77,3.07c-0.51,0.72-1.19,1.06-2.02,1.04c-0.41,0.01-0.79-0.03-1.14-0.14
		c-0.34-0.1-0.64-0.29-0.88-0.56c-0.25-0.27-0.44-0.62-0.57-1.08c-0.13-0.45-0.2-1.01-0.2-1.67v-0.7c0-0.67,0.07-1.22,0.2-1.68
		c0.13-0.45,0.32-0.81,0.57-1.08c0.25-0.26,0.54-0.45,0.88-0.56c0.35-0.11,0.73-0.15,1.14-0.14c0.41-0.01,0.79,0.04,1.14,0.15
		c0.35,0.11,0.64,0.3,0.89,0.57c0.25,0.27,0.44,0.62,0.57,1.07c0.13,0.45,0.2,1,0.2,1.67V10.4z M71.14,0.75
		c-0.41,0-0.76,0.15-1.05,0.44c-0.29,0.29-0.43,0.64-0.43,1.06s0.14,0.76,0.43,1.06c0.29,0.29,0.64,0.44,1.05,0.44
		c0.17,0,0.35-0.04,0.53-0.12c0.18-0.08,0.34-0.19,0.49-0.33c0.14-0.14,0.26-0.3,0.35-0.48c0.09-0.18,0.13-0.37,0.13-0.57
		c0-0.41-0.14-0.76-0.44-1.06C71.91,0.89,71.56,0.75,71.14,0.75z"/>
</g>
<g>
	<path class="st3" d="M0.5,17.26h0.74c0.58,0,0.97,0.37,0.97,0.91s-0.39,0.91-0.97,0.91H0.5V17.26z M1.23,18.9
		c0.48,0,0.79-0.31,0.79-0.74c0-0.44-0.31-0.74-0.79-0.74H0.69v1.48H1.23z"/>
	<path class="st3" d="M4.95,18.9v0.17H3.67v-1.81h1.24v0.17H3.86v0.64H4.8v0.16H3.86v0.67H4.95z"/>
	<path class="st3" d="M6.26,18.85l0.07-0.15c0.13,0.13,0.36,0.22,0.6,0.22c0.34,0,0.49-0.14,0.49-0.32c0-0.5-1.12-0.19-1.12-0.86
		c0-0.27,0.21-0.5,0.67-0.5c0.2,0,0.42,0.06,0.56,0.16l-0.06,0.15c-0.16-0.1-0.34-0.15-0.5-0.15c-0.33,0-0.48,0.15-0.48,0.33
		c0,0.5,1.12,0.2,1.12,0.86c0,0.27-0.21,0.49-0.68,0.49C6.66,19.08,6.39,18.99,6.26,18.85z"/>
	<path class="st3" d="M9.06,17.26h0.19v1.81H9.06V17.26z"/>
	<path class="st3" d="M12.15,18.16h0.18v0.69c-0.17,0.15-0.41,0.23-0.67,0.23c-0.55,0-0.95-0.39-0.95-0.92
		c0-0.53,0.4-0.92,0.96-0.92c0.27,0,0.51,0.09,0.67,0.26l-0.12,0.12c-0.15-0.15-0.33-0.21-0.55-0.21c-0.45,0-0.78,0.32-0.78,0.75
		c0,0.43,0.33,0.75,0.77,0.75c0.17,0,0.33-0.04,0.47-0.14V18.16z"/>
	<path class="st3" d="M15.42,17.26v1.81h-0.16L14.1,17.6v1.47H13.9v-1.81h0.16l1.17,1.47v-1.47H15.42z"/>
	<path class="st3" d="M17.04,17.26h0.19v1.81h-0.19V17.26z"/>
	<path class="st3" d="M20.37,17.26v1.81h-0.16l-1.16-1.47v1.47h-0.19v-1.81h0.16l1.17,1.47v-1.47H20.37z"/>
	<path class="st3" d="M23.27,18.16h0.18v0.69c-0.17,0.15-0.41,0.23-0.67,0.23c-0.55,0-0.95-0.39-0.95-0.92
		c0-0.53,0.4-0.92,0.96-0.92c0.27,0,0.51,0.09,0.67,0.26l-0.12,0.12c-0.15-0.15-0.33-0.21-0.55-0.21c-0.45,0-0.78,0.32-0.78,0.75
		c0,0.43,0.33,0.75,0.77,0.75c0.17,0,0.33-0.04,0.47-0.14V18.16z"/>
	<path class="st4" d="M26.73,17.15h0.17v2.42h-0.17V17.15z"/>
	<path class="st3" d="M31.38,18.58h-1.01l-0.22,0.48h-0.2l0.83-1.81h0.19l0.83,1.81h-0.2L31.38,18.58z M31.31,18.43l-0.43-0.97
		l-0.44,0.97H31.31z"/>
	<path class="st3" d="M33.13,17.26h0.74c0.58,0,0.97,0.37,0.97,0.91s-0.39,0.91-0.97,0.91h-0.74V17.26z M33.86,18.9
		c0.48,0,0.79-0.31,0.79-0.74c0-0.44-0.31-0.74-0.79-0.74h-0.54v1.48H33.86z"/>
	<path class="st3" d="M37.75,17.26l-0.8,1.81h-0.19l-0.8-1.81h0.21l0.69,1.57l0.7-1.57H37.75z"/>
	<path class="st3" d="M40.33,18.9v0.17h-1.28v-1.81h1.24v0.17h-1.05v0.64h0.94v0.16h-0.94v0.67H40.33z"/>
	<path class="st3" d="M43.04,19.07l-0.41-0.58c-0.05,0-0.09,0.01-0.15,0.01H42v0.57h-0.19v-1.81h0.68c0.46,0,0.74,0.23,0.74,0.62
		c0,0.29-0.15,0.48-0.41,0.57l0.44,0.62H43.04z M43.03,17.88c0-0.29-0.19-0.45-0.55-0.45H42v0.91h0.48
		C42.84,18.33,43.03,18.16,43.03,17.88z"/>
	<path class="st3" d="M45.04,17.42H44.4v-0.17h1.46v0.17h-0.64v1.65h-0.19V17.42z"/>
	<path class="st3" d="M47.2,17.26h0.19v1.81H47.2V17.26z"/>
	<path class="st3" d="M48.84,18.85l0.08-0.15c0.13,0.13,0.36,0.22,0.6,0.22c0.34,0,0.49-0.14,0.49-0.32c0-0.5-1.12-0.19-1.12-0.86
		c0-0.27,0.21-0.5,0.67-0.5c0.2,0,0.42,0.06,0.56,0.16l-0.06,0.15c-0.15-0.1-0.34-0.15-0.5-0.15c-0.33,0-0.48,0.15-0.48,0.33
		c0,0.5,1.12,0.2,1.12,0.86c0,0.27-0.21,0.49-0.68,0.49C49.25,19.08,48.98,18.99,48.84,18.85z"/>
	<path class="st3" d="M51.64,17.26h0.19v1.81h-0.19V17.26z"/>
	<path class="st3" d="M54.97,17.26v1.81h-0.16l-1.17-1.47v1.47h-0.19v-1.81h0.16l1.17,1.47v-1.47H54.97z"/>
	<path class="st3" d="M57.87,18.16h0.18v0.69c-0.17,0.15-0.41,0.23-0.66,0.23c-0.55,0-0.96-0.39-0.96-0.92
		c0-0.53,0.4-0.92,0.96-0.92c0.27,0,0.51,0.09,0.67,0.26l-0.12,0.12c-0.15-0.15-0.33-0.21-0.55-0.21c-0.45,0-0.78,0.32-0.78,0.75
		c0,0.43,0.33,0.75,0.77,0.75c0.17,0,0.33-0.04,0.47-0.14V18.16z"/>
	<path class="st4" d="M61.34,17.15h0.17v2.42h-0.17V17.15z"/>
	<path class="st3" d="M66.26,17.88c0,0.39-0.28,0.62-0.74,0.62h-0.49v0.57h-0.19v-1.81h0.68C65.98,17.26,66.26,17.49,66.26,17.88z
		 M66.07,17.88c0-0.29-0.19-0.45-0.55-0.45h-0.48v0.91h0.48C65.88,18.33,66.07,18.16,66.07,17.88z"/>
	<path class="st3" d="M68.95,19.07l-0.41-0.58c-0.05,0-0.09,0.01-0.15,0.01H67.9v0.57h-0.19v-1.81h0.68c0.46,0,0.74,0.23,0.74,0.62
		c0,0.29-0.15,0.48-0.41,0.57l0.44,0.62H68.95z M68.94,17.88c0-0.29-0.19-0.45-0.55-0.45H67.9v0.91h0.48
		C68.74,18.33,68.94,18.16,68.94,17.88z"/>
	<path class="st3" d="M70.61,17.26h0.19v1.81h-0.19V17.26z"/>
	<path class="st3" d="M73.94,17.26v1.81h-0.16l-1.17-1.47v1.47h-0.19v-1.81h0.16l1.17,1.47v-1.47H73.94z"/>
	<path class="st3" d="M75.91,17.42h-0.64v-0.17h1.46v0.17h-0.64v1.65h-0.19V17.42z"/>
	<path class="st3" d="M78.08,17.26h0.19v1.81h-0.19V17.26z"/>
	<path class="st3" d="M81.41,17.26v1.81h-0.16l-1.17-1.47v1.47h-0.19v-1.81h0.16l1.17,1.47v-1.47H81.41z"/>
	<path class="st3" d="M84.31,18.16h0.18v0.69c-0.17,0.15-0.41,0.23-0.66,0.23c-0.55,0-0.96-0.39-0.96-0.92
		c0-0.53,0.4-0.92,0.96-0.92c0.27,0,0.51,0.09,0.67,0.26l-0.12,0.12c-0.15-0.15-0.33-0.21-0.55-0.21c-0.45,0-0.78,0.32-0.78,0.75
		c0,0.43,0.33,0.75,0.77,0.75c0.17,0,0.33-0.04,0.47-0.14V18.16z"/>
</g>
</svg>
