<?xml version="1.0" encoding="utf-8"?>
<!-- Generator: Adobe Illustrator 24.0.0, SVG Export Plug-In . SVG Version: 6.00 Build 0)  -->
<svg version="1.1" id="Layer_1" xmlns="http://www.w3.org/2000/svg" xmlns:xlink="http://www.w3.org/1999/xlink" x="0px" y="0px"
	 viewBox="0 0 85 4.14" style="enable-background:new 0 0 85 4.14;" xml:space="preserve">
<style type="text/css">
	.st0{fill:#6D6F71;}
	.st1{fill:#FF0000;}
</style>
<g>
	<path class="st0" d="M0.5,0.97h0.74c0.58,0,0.97,0.37,0.97,0.91S1.82,2.78,1.24,2.78H0.5V0.97z M1.23,2.62
		c0.48,0,0.79-0.31,0.79-0.74c0-0.44-0.31-0.74-0.79-0.74H0.69v1.48H1.23z"/>
	<path class="st0" d="M4.95,2.62v0.17H3.67V0.97h1.24v0.17H3.86v0.64H4.8v0.16H3.86v0.67H4.95z"/>
	<path class="st0" d="M6.26,2.56l0.07-0.15c0.13,0.13,0.36,0.22,0.6,0.22c0.34,0,0.49-0.14,0.49-0.32c0-0.5-1.12-0.19-1.12-0.86
		c0-0.27,0.21-0.5,0.67-0.5c0.2,0,0.42,0.06,0.56,0.16L7.47,1.27c-0.16-0.1-0.34-0.15-0.5-0.15c-0.33,0-0.48,0.15-0.48,0.33
		c0,0.5,1.12,0.2,1.12,0.86c0,0.27-0.21,0.49-0.68,0.49C6.66,2.8,6.39,2.7,6.26,2.56z"/>
	<path class="st0" d="M9.06,0.97h0.19v1.81H9.06V0.97z"/>
	<path class="st0" d="M12.15,1.88h0.18v0.69c-0.17,0.15-0.41,0.23-0.67,0.23c-0.55,0-0.95-0.39-0.95-0.92c0-0.53,0.4-0.92,0.96-0.92
		c0.27,0,0.51,0.09,0.67,0.26l-0.12,0.12c-0.15-0.15-0.33-0.21-0.55-0.21c-0.45,0-0.78,0.32-0.78,0.75c0,0.43,0.33,0.75,0.77,0.75
		c0.17,0,0.33-0.04,0.47-0.14V1.88z"/>
	<path class="st0" d="M15.42,0.97v1.81h-0.16L14.1,1.31v1.47H13.9V0.97h0.16l1.17,1.47V0.97H15.42z"/>
	<path class="st0" d="M17.04,0.97h0.19v1.81h-0.19V0.97z"/>
	<path class="st0" d="M20.37,0.97v1.81h-0.16l-1.16-1.47v1.47h-0.19V0.97h0.16l1.17,1.47V0.97H20.37z"/>
	<path class="st0" d="M23.27,1.88h0.18v0.69c-0.17,0.15-0.41,0.23-0.67,0.23c-0.55,0-0.95-0.39-0.95-0.92c0-0.53,0.4-0.92,0.96-0.92
		c0.27,0,0.51,0.09,0.67,0.26l-0.12,0.12c-0.15-0.15-0.33-0.21-0.55-0.21c-0.45,0-0.78,0.32-0.78,0.75c0,0.43,0.33,0.75,0.77,0.75
		c0.17,0,0.33-0.04,0.47-0.14V1.88z"/>
	<path class="st1" d="M26.73,0.86h0.17v2.42h-0.17V0.86z"/>
	<path class="st0" d="M31.38,2.3h-1.01l-0.22,0.48h-0.2l0.83-1.81h0.19l0.83,1.81h-0.2L31.38,2.3z M31.31,2.14l-0.43-0.97
		l-0.44,0.97H31.31z"/>
	<path class="st0" d="M33.13,0.97h0.74c0.58,0,0.97,0.37,0.97,0.91s-0.39,0.91-0.97,0.91h-0.74V0.97z M33.86,2.62
		c0.48,0,0.79-0.31,0.79-0.74c0-0.44-0.31-0.74-0.79-0.74h-0.54v1.48H33.86z"/>
	<path class="st0" d="M37.75,0.97l-0.8,1.81h-0.19l-0.8-1.81h0.21l0.69,1.57l0.7-1.57H37.75z"/>
	<path class="st0" d="M40.33,2.62v0.17h-1.28V0.97h1.24v0.17h-1.05v0.64h0.94v0.16h-0.94v0.67H40.33z"/>
	<path class="st0" d="M43.04,2.78L42.63,2.2c-0.05,0-0.09,0.01-0.15,0.01H42v0.57h-0.19V0.97h0.68c0.46,0,0.74,0.23,0.74,0.62
		c0,0.29-0.15,0.48-0.41,0.57l0.44,0.62H43.04z M43.03,1.59c0-0.29-0.19-0.45-0.55-0.45H42v0.91h0.48
		C42.84,2.04,43.03,1.88,43.03,1.59z"/>
	<path class="st0" d="M45.04,1.14H44.4V0.97h1.46v0.17h-0.64v1.65h-0.19V1.14z"/>
	<path class="st0" d="M47.2,0.97h0.19v1.81H47.2V0.97z"/>
	<path class="st0" d="M48.84,2.56l0.08-0.15c0.13,0.13,0.36,0.22,0.6,0.22c0.34,0,0.49-0.14,0.49-0.32c0-0.5-1.12-0.19-1.12-0.86
		c0-0.27,0.21-0.5,0.67-0.5c0.2,0,0.42,0.06,0.56,0.16l-0.06,0.15c-0.15-0.1-0.34-0.15-0.5-0.15c-0.33,0-0.48,0.15-0.48,0.33
		c0,0.5,1.12,0.2,1.12,0.86c0,0.27-0.21,0.49-0.68,0.49C49.25,2.8,48.98,2.7,48.84,2.56z"/>
	<path class="st0" d="M51.64,0.97h0.19v1.81h-0.19V0.97z"/>
	<path class="st0" d="M54.97,0.97v1.81h-0.16l-1.17-1.47v1.47h-0.19V0.97h0.16l1.17,1.47V0.97H54.97z"/>
	<path class="st0" d="M57.87,1.88h0.18v0.69c-0.17,0.15-0.41,0.23-0.66,0.23c-0.55,0-0.96-0.39-0.96-0.92c0-0.53,0.4-0.92,0.96-0.92
		c0.27,0,0.51,0.09,0.67,0.26l-0.12,0.12c-0.15-0.15-0.33-0.21-0.55-0.21c-0.45,0-0.78,0.32-0.78,0.75c0,0.43,0.33,0.75,0.77,0.75
		c0.17,0,0.33-0.04,0.47-0.14V1.88z"/>
	<path class="st1" d="M61.34,0.86h0.17v2.42h-0.17V0.86z"/>
	<path class="st0" d="M66.26,1.59c0,0.39-0.28,0.62-0.74,0.62h-0.49v0.57h-0.19V0.97h0.68C65.98,0.97,66.26,1.2,66.26,1.59z
		 M66.07,1.59c0-0.29-0.19-0.45-0.55-0.45h-0.48v0.91h0.48C65.88,2.04,66.07,1.88,66.07,1.59z"/>
	<path class="st0" d="M68.95,2.78L68.53,2.2c-0.05,0-0.09,0.01-0.15,0.01H67.9v0.57h-0.19V0.97h0.68c0.46,0,0.74,0.23,0.74,0.62
		c0,0.29-0.15,0.48-0.41,0.57l0.44,0.62H68.95z M68.94,1.59c0-0.29-0.19-0.45-0.55-0.45H67.9v0.91h0.48
		C68.74,2.04,68.94,1.88,68.94,1.59z"/>
	<path class="st0" d="M70.61,0.97h0.19v1.81h-0.19V0.97z"/>
	<path class="st0" d="M73.94,0.97v1.81h-0.16l-1.17-1.47v1.47h-0.19V0.97h0.16l1.17,1.47V0.97H73.94z"/>
	<path class="st0" d="M75.91,1.14h-0.64V0.97h1.46v0.17h-0.64v1.65h-0.19V1.14z"/>
	<path class="st0" d="M78.08,0.97h0.19v1.81h-0.19V0.97z"/>
	<path class="st0" d="M81.41,0.97v1.81h-0.16l-1.17-1.47v1.47h-0.19V0.97h0.16l1.17,1.47V0.97H81.41z"/>
	<path class="st0" d="M84.31,1.88h0.18v0.69c-0.17,0.15-0.41,0.23-0.66,0.23c-0.55,0-0.96-0.39-0.96-0.92c0-0.53,0.4-0.92,0.96-0.92
		c0.27,0,0.51,0.09,0.67,0.26l-0.12,0.12c-0.15-0.15-0.33-0.21-0.55-0.21c-0.45,0-0.78,0.32-0.78,0.75c0,0.43,0.33,0.75,0.77,0.75
		c0.17,0,0.33-0.04,0.47-0.14V1.88z"/>
</g>
</svg>
